# xmcd
#
# Track frame offsets:
#	150
#	18366
#	36886
#	53740
#	71121
#	87614
#	105389
#	124703
#	144752
#
# Disc length: 2144 seconds
#
# Revision: 0
# Processed by: cddbd v1.5.1PL2 Copyright (c) Steve Scherf et al.
# Submitted via: dBpowerAMP V4.0
#
DISCID=73085e09
DTITLE=Clara Bakker - Clara
DYEAR=2006
DGENRE=Blues
TTITLE0=Yorick's Blues
TTITLE1=Feels Like Home
TTITLE2=Don't, Chubby Girl
TTITLE3=Love Me Like A Man
TTITLE4=Heart Attack And Vine
TTITLE5=Needles
TTITLE6=Angel From Montgomery
TTITLE7=The Glow
TTITLE8=Temptation
EXTD=
EXTT0=
EXTT1=
EXTT2=
EXTT3=
EXTT4=
EXTT5=
EXTT6=
EXTT7=
EXTT8=
PLAYORDER=
